<svg aria-hidden="true" style="position: absolute; width: 0; height: 0; overflow: hidden;" version="1.1" xmlns="http://www.w3.org/2000/svg" xmlns:xlink="http://www.w3.org/1999/xlink">
<defs>
<symbol id="icon-arrow" viewBox="0 0 30 32">
<path fill="#777" style="fill: var(--color1, #777)" d="M27.813 29.801c0.68 0 1.231-0.551 1.231-1.231v-11.077c0-0.68-0.551-1.231-1.231-1.231s-1.231 0.551-1.231 1.231v9.846h-9.846c-0.68 0-1.231 0.551-1.231 1.231s0.551 1.231 1.231 1.231h11.077zM0.834 3.332l26.108 26.109 1.741-1.741-26.108-26.108-1.741 1.741z"></path>
</symbol>
<symbol id="icon-ok" viewBox="0 0 32 32">
<path fill="#41a239" style="fill: var(--color2, #41a239)" d="M14.667 30.933c-8.087 0-14.667-6.58-14.667-14.667s6.58-14.667 14.667-14.667c2.812 0 5.548 0.801 7.912 2.319 0.464 0.299 0.6 0.917 0.301 1.383s-0.917 0.6-1.383 0.301c-2.040-1.311-4.403-2.003-6.831-2.003-6.984 0-12.667 5.683-12.667 12.667s5.683 12.667 12.667 12.667c6.984 0 12.667-5.683 12.667-12.667 0-0.418-0.020-0.831-0.059-1.237-0.053-0.551 0.349-1.039 0.899-1.092 0.552-0.051 1.039 0.349 1.092 0.899 0.045 0.471 0.068 0.948 0.068 1.431 0 8.087-6.58 14.667-14.667 14.667z"></path>
<path fill="#41a239" style="fill: var(--color2, #41a239)" d="M14.384 21.333c-0.253 0-0.506-0.097-0.698-0.291l-5.929-5.952c-0.386-0.388-0.386-1.016 0-1.403s1.012-0.388 1.398 0l5.231 5.251 13.794-13.847c0.386-0.388 1.012-0.388 1.398 0s0.386 1.016 0 1.403l-14.494 14.55c-0.194 0.193-0.447 0.29-0.7 0.29z"></path>
</symbol>
<symbol id="icon-phone" viewBox="0 0 32 32">
<path fill="none" stroke="#fff" style="stroke: var(--color3, #fff)" stroke-linejoin="miter" stroke-linecap="butt" stroke-miterlimit="10" stroke-width="1.0667" d="M21.198 27.733c-4.677 0-8.882-1.933-11.948-4.999s-4.984-7.26-4.984-11.938c0-0.983 0.437-1.864 1.12-2.465l2.669-2.54c0.294-0.287 0.69-0.458 1.127-0.458 0.567 0 1.065 0.287 1.359 0.724l2.71 3.79c0.191 0.266 0.3 0.594 0.3 0.949 0 0.485-0.219 0.929-0.553 1.229l-2.171 1.912c-0.3 0.3-0.553 0.724-0.553 1.229-0.007 1.202 0.888 2.855 2.294 4.261s3.059 2.302 4.26 2.295c0.498 0 0.929-0.253 1.229-0.553l1.918-2.165c0.3-0.341 0.737-0.553 1.229-0.553 0.355 0 0.676 0.109 0.949 0.3l3.789 2.711c0.437 0.294 0.724 0.792 0.724 1.359 0 0.437-0.171 0.833-0.451 1.127l-2.54 2.67c-0.614 0.676-1.495 1.113-2.478 1.113z"></path>
</symbol>
<symbol id="logo" viewBox="0 0 32 32">
<path fill="#fff" style="fill: var(--color3, #fff)" d="M0 0h3.257v28.657h9.58v3.247h-12.838v-31.905z"></path>
<path fill="#fff" style="fill: var(--color3, #fff)" d="M9.58 25.696h3.253v-6.401h3.158v-3.245h-3.158v-12.708h6.323v28.657h10.929c0 0 1.914-0.095 1.914-2.29v-27.704c0 0 0.096-1.909-2.105-1.909h-4.315v3.149h3.158v25.509h-6.319v-26.749c0 0-0.096-1.909-1.722-1.909h-9.582c0 0-1.531 0.286-1.531 1.909l-0.002 23.69z"></path>
</symbol>
<symbol id="hero-arrow" viewBox="0 0 6 32">
<path fill="#fff" style="fill: var(--color1, #fff)" d="M2.846 31.495c0.152 0.152 0.4 0.152 0.552 0l2.483-2.483c0.152-0.152 0.152-0.4 0-0.552s-0.399-0.152-0.552 0l-2.208 2.208-2.208-2.208c-0.152-0.152-0.399-0.152-0.552 0s-0.152 0.399 0 0.552l2.483 2.483zM2.732 0v31.22h0.78v-31.22h-0.78z"></path>
</symbol>
</defs>
</svg>
